<mxfile host="65bd71144e">
    <diagram id="Pe1ooIz4A3tT8VLlgy_8" name="Page-1">
        <mxGraphModel dx="991" dy="832" grid="1" gridSize="10" guides="1" tooltips="1" connect="1" arrows="1" fold="1" page="1" pageScale="1" pageWidth="827" pageHeight="1169" math="0" shadow="0">
            <root>
                <mxCell id="0"/>
                <mxCell id="1" parent="0"/>
                <mxCell id="7" value="Who is Machine B?" style="whiteSpace=wrap;html=1;fontStyle=1;fontSize=30;" parent="1" vertex="1">
                    <mxGeometry x="389.5" y="360" width="496.5" height="60" as="geometry"/>
                </mxCell>
                <mxCell id="8" value="Recognition that it is B indeed" style="whiteSpace=wrap;html=1;fontStyle=1;fontSize=30;" parent="1" vertex="1">
                    <mxGeometry x="389.5" y="460" width="496.5" height="60" as="geometry"/>
                </mxCell>
                <mxCell id="9" value="Data" style="whiteSpace=wrap;html=1;fontStyle=1;fontSize=30;" parent="1" vertex="1">
                    <mxGeometry x="389.5" y="570" width="496.5" height="60" as="geometry"/>
                </mxCell>
                <mxCell id="10" value="CRC" style="whiteSpace=wrap;html=1;fontSize=30;fontStyle=1" parent="1" vertex="1">
                    <mxGeometry x="316" y="360" width="73.5" height="60" as="geometry"/>
                </mxCell>
                <mxCell id="11" value="CRC" style="whiteSpace=wrap;html=1;fontSize=30;fontStyle=1" parent="1" vertex="1">
                    <mxGeometry x="316" y="460" width="73.5" height="60" as="geometry"/>
                </mxCell>
                <mxCell id="12" value="CRC" style="whiteSpace=wrap;html=1;fontSize=30;fontStyle=1" parent="1" vertex="1">
                    <mxGeometry x="316" y="570" width="73.5" height="60" as="geometry"/>
                </mxCell>
                <mxCell id="13" value="" style="whiteSpace=wrap;html=1;fontSize=30;" parent="1" vertex="1">
                    <mxGeometry x="886" y="360" width="30" height="60" as="geometry"/>
                </mxCell>
                <mxCell id="14" value="A" style="whiteSpace=wrap;html=1;fontSize=30;fontStyle=1" parent="1" vertex="1">
                    <mxGeometry x="916" y="360" width="73.5" height="60" as="geometry"/>
                </mxCell>
                <mxCell id="27" style="edgeStyle=none;html=1;entryX=0;entryY=1;entryDx=0;entryDy=0;fontSize=30;" parent="1" source="15" target="26" edge="1">
                    <mxGeometry relative="1" as="geometry"/>
                </mxCell>
                <mxCell id="29" style="edgeStyle=none;html=1;fontSize=30;" parent="1" source="15" target="23" edge="1">
                    <mxGeometry relative="1" as="geometry"/>
                </mxCell>
                <mxCell id="15" value="FF" style="whiteSpace=wrap;html=1;fontSize=30;fontStyle=1" parent="1" vertex="1">
                    <mxGeometry x="989.5" y="360" width="73.5" height="60" as="geometry"/>
                </mxCell>
                <mxCell id="30" style="edgeStyle=none;html=1;fontSize=30;" parent="1" source="16" target="24" edge="1">
                    <mxGeometry relative="1" as="geometry"/>
                </mxCell>
                <mxCell id="16" value="A" style="whiteSpace=wrap;html=1;fontSize=30;fontStyle=1" parent="1" vertex="1">
                    <mxGeometry x="989.5" y="460" width="73.5" height="60" as="geometry"/>
                </mxCell>
                <mxCell id="17" value="B" style="whiteSpace=wrap;html=1;fontSize=30;fontStyle=1" parent="1" vertex="1">
                    <mxGeometry x="916" y="460" width="73.5" height="60" as="geometry"/>
                </mxCell>
                <mxCell id="18" value="" style="whiteSpace=wrap;html=1;fontSize=30;" parent="1" vertex="1">
                    <mxGeometry x="886" y="460" width="30" height="60" as="geometry"/>
                </mxCell>
                <mxCell id="31" style="edgeStyle=none;html=1;fontSize=30;" parent="1" source="20" edge="1">
                    <mxGeometry relative="1" as="geometry">
                        <mxPoint x="1196" y="600" as="targetPoint"/>
                    </mxGeometry>
                </mxCell>
                <mxCell id="20" value="B" style="whiteSpace=wrap;html=1;fontSize=30;fontStyle=1" parent="1" vertex="1">
                    <mxGeometry x="989.5" y="570" width="73.5" height="60" as="geometry"/>
                </mxCell>
                <mxCell id="21" value="A" style="whiteSpace=wrap;html=1;fontSize=30;fontStyle=1" parent="1" vertex="1">
                    <mxGeometry x="916" y="570" width="73.5" height="60" as="geometry"/>
                </mxCell>
                <mxCell id="22" value="" style="whiteSpace=wrap;html=1;fontSize=30;" parent="1" vertex="1">
                    <mxGeometry x="886" y="570" width="30" height="60" as="geometry"/>
                </mxCell>
                <mxCell id="23" value="ARP A" style="text;strokeColor=none;align=center;fillColor=none;html=1;verticalAlign=middle;whiteSpace=wrap;rounded=0;fontSize=30;fontStyle=1" parent="1" vertex="1">
                    <mxGeometry x="1206" y="375" width="160" height="30" as="geometry"/>
                </mxCell>
                <mxCell id="24" value="ARP B" style="text;strokeColor=none;align=center;fillColor=none;html=1;verticalAlign=middle;whiteSpace=wrap;rounded=0;fontSize=30;fontStyle=1" parent="1" vertex="1">
                    <mxGeometry x="1206" y="475" width="160" height="30" as="geometry"/>
                </mxCell>
                <mxCell id="25" value="Comm Established" style="text;strokeColor=none;align=center;fillColor=none;html=1;verticalAlign=middle;whiteSpace=wrap;rounded=0;fontSize=30;fontStyle=1" parent="1" vertex="1">
                    <mxGeometry x="1216" y="585" width="160" height="30" as="geometry"/>
                </mxCell>
                <mxCell id="26" value="Broadcast Address" style="text;strokeColor=none;align=center;fillColor=none;html=1;verticalAlign=middle;whiteSpace=wrap;rounded=0;fontSize=30;fontStyle=1" parent="1" vertex="1">
                    <mxGeometry x="1086" y="290" width="160" height="30" as="geometry"/>
                </mxCell>
                <mxCell id="32" value="ARP (Address Resolution Protocol)" style="text;strokeColor=none;align=center;fillColor=none;html=1;verticalAlign=middle;whiteSpace=wrap;rounded=0;fontSize=50;fontStyle=1" parent="1" vertex="1">
                    <mxGeometry x="270" y="170" width="926" height="30" as="geometry"/>
                </mxCell>
            </root>
        </mxGraphModel>
    </diagram>
    <diagram id="Z5lH6J7huZ7gNhFc_j3J" name="Page-2">
        <mxGraphModel dx="1171" dy="984" grid="1" gridSize="10" guides="1" tooltips="1" connect="1" arrows="1" fold="1" page="1" pageScale="1" pageWidth="827" pageHeight="1169" math="0" shadow="0">
            <root>
                <mxCell id="0"/>
                <mxCell id="1" parent="0"/>
                <mxCell id="fLn1FjxjvVk-UceOFfv1-1" value="Two Departments" style="text;strokeColor=none;align=center;fillColor=none;html=1;verticalAlign=middle;whiteSpace=wrap;rounded=0;fontSize=50;fontStyle=1" parent="1" vertex="1">
                    <mxGeometry x="610" y="130" width="430" height="30" as="geometry"/>
                </mxCell>
                <mxCell id="fLn1FjxjvVk-UceOFfv1-2" value="" style="ellipse;shape=doubleEllipse;whiteSpace=wrap;html=1;aspect=fixed;fontSize=50;" parent="1" vertex="1">
                    <mxGeometry x="420" y="250" width="300" height="300" as="geometry"/>
                </mxCell>
                <mxCell id="fLn1FjxjvVk-UceOFfv1-3" value="" style="ellipse;shape=doubleEllipse;whiteSpace=wrap;html=1;aspect=fixed;fontSize=50;" parent="1" vertex="1">
                    <mxGeometry x="950" y="250" width="300" height="300" as="geometry"/>
                </mxCell>
                <mxCell id="fLn1FjxjvVk-UceOFfv1-6" value="" style="edgeStyle=none;html=1;fontSize=50;" parent="1" source="fLn1FjxjvVk-UceOFfv1-4" target="fLn1FjxjvVk-UceOFfv1-5" edge="1">
                    <mxGeometry relative="1" as="geometry"/>
                </mxCell>
                <mxCell id="fLn1FjxjvVk-UceOFfv1-4" value="RAM" style="shape=ext;double=1;rounded=0;whiteSpace=wrap;html=1;fontSize=20;" parent="1" vertex="1">
                    <mxGeometry x="780" y="360" width="120" height="80" as="geometry"/>
                </mxCell>
                <mxCell id="fLn1FjxjvVk-UceOFfv1-5" value="Switch" style="text;strokeColor=none;align=center;fillColor=none;html=1;verticalAlign=middle;whiteSpace=wrap;rounded=0;fontSize=30;fontStyle=1" parent="1" vertex="1">
                    <mxGeometry x="770" y="310" width="140" height="30" as="geometry"/>
                </mxCell>
                <mxCell id="fLn1FjxjvVk-UceOFfv1-7" value="End-users" style="whiteSpace=wrap;html=1;align=center;verticalAlign=middle;treeFolding=1;treeMoving=1;newEdgeStyle={&quot;edgeStyle&quot;:&quot;elbowEdgeStyle&quot;,&quot;startArrow&quot;:&quot;none&quot;,&quot;endArrow&quot;:&quot;none&quot;};fontSize=20;" parent="1" vertex="1">
                    <mxGeometry x="510" y="410" width="100" height="60" as="geometry"/>
                </mxCell>
                <mxCell id="fLn1FjxjvVk-UceOFfv1-8" value="" style="edgeStyle=elbowEdgeStyle;elbow=vertical;sourcePerimeterSpacing=0;targetPerimeterSpacing=0;startArrow=none;endArrow=none;rounded=0;curved=0;fontSize=20;exitX=0;exitY=0.5;exitDx=0;exitDy=0;" parent="1" source="fLn1FjxjvVk-UceOFfv1-4" target="fLn1FjxjvVk-UceOFfv1-7" edge="1">
                    <mxGeometry relative="1" as="geometry">
                        <mxPoint x="770" y="390" as="sourcePoint"/>
                    </mxGeometry>
                </mxCell>
                <mxCell id="fLn1FjxjvVk-UceOFfv1-9" value="End-users" style="whiteSpace=wrap;html=1;align=center;verticalAlign=middle;treeFolding=1;treeMoving=1;newEdgeStyle={&quot;edgeStyle&quot;:&quot;elbowEdgeStyle&quot;,&quot;startArrow&quot;:&quot;none&quot;,&quot;endArrow&quot;:&quot;none&quot;};fontSize=20;" parent="1" vertex="1">
                    <mxGeometry x="1060" y="420" width="100" height="60" as="geometry"/>
                </mxCell>
                <mxCell id="fLn1FjxjvVk-UceOFfv1-10" value="" style="edgeStyle=elbowEdgeStyle;elbow=vertical;sourcePerimeterSpacing=0;targetPerimeterSpacing=0;startArrow=none;endArrow=none;rounded=0;curved=0;fontSize=20;" parent="1" target="fLn1FjxjvVk-UceOFfv1-9" edge="1">
                    <mxGeometry relative="1" as="geometry">
                        <mxPoint x="900" y="412" as="sourcePoint"/>
                    </mxGeometry>
                </mxCell>
                <mxCell id="fLn1FjxjvVk-UceOFfv1-13" value="ASIC bases Switches" style="text;strokeColor=none;align=center;fillColor=none;html=1;verticalAlign=middle;whiteSpace=wrap;rounded=0;fontSize=20;fontStyle=1" parent="1" vertex="1">
                    <mxGeometry x="680" y="550" width="320" height="30" as="geometry"/>
                </mxCell>
                <mxCell id="fLn1FjxjvVk-UceOFfv1-14" value="&lt;span style=&quot;font-weight: normal;&quot;&gt;Switches have integrated processor, contains 16 ports that connect 16 devices&lt;/span&gt;" style="text;strokeColor=none;align=center;fillColor=none;html=1;verticalAlign=middle;whiteSpace=wrap;rounded=0;fontSize=20;fontStyle=1" parent="1" vertex="1">
                    <mxGeometry x="625" y="590" width="430" height="30" as="geometry"/>
                </mxCell>
                <mxCell id="fLn1FjxjvVk-UceOFfv1-15" value="&lt;span style=&quot;font-weight: normal;&quot;&gt;Department A&lt;/span&gt;" style="text;strokeColor=none;align=center;fillColor=none;html=1;verticalAlign=middle;whiteSpace=wrap;rounded=0;fontSize=20;fontStyle=1" parent="1" vertex="1">
                    <mxGeometry x="490" y="320" width="140" height="30" as="geometry"/>
                </mxCell>
                <mxCell id="fLn1FjxjvVk-UceOFfv1-16" value="&lt;span style=&quot;font-weight: normal;&quot;&gt;Department B&lt;/span&gt;" style="text;strokeColor=none;align=center;fillColor=none;html=1;verticalAlign=middle;whiteSpace=wrap;rounded=0;fontSize=20;fontStyle=1" parent="1" vertex="1">
                    <mxGeometry x="1030" y="320" width="140" height="30" as="geometry"/>
                </mxCell>
                <mxCell id="fLn1FjxjvVk-UceOFfv1-17" value="CSMA/CA" style="text;strokeColor=none;align=center;fillColor=none;html=1;verticalAlign=middle;whiteSpace=wrap;rounded=0;fontSize=20;fontStyle=1" parent="1" vertex="1">
                    <mxGeometry x="680" y="670" width="320" height="30" as="geometry"/>
                </mxCell>
                <mxCell id="fLn1FjxjvVk-UceOFfv1-18" value="&lt;span style=&quot;font-weight: normal;&quot;&gt;Carrier Senses Multiple Acess/Collision Avoidence&lt;/span&gt;" style="text;strokeColor=none;align=center;fillColor=none;html=1;verticalAlign=middle;whiteSpace=wrap;rounded=0;fontSize=20;fontStyle=1" parent="1" vertex="1">
                    <mxGeometry x="630" y="710" width="430" height="30" as="geometry"/>
                </mxCell>
            </root>
        </mxGraphModel>
    </diagram>
    <diagram id="hxRbOrwtQCfOW6tGixpm" name="Page-3">
        <mxGraphModel dx="644" dy="541" grid="1" gridSize="10" guides="1" tooltips="1" connect="1" arrows="1" fold="1" page="1" pageScale="1" pageWidth="827" pageHeight="1169" math="0" shadow="0">
            <root>
                <mxCell id="0"/>
                <mxCell id="1" parent="0"/>
                <mxCell id="tMJELMss0j928xUBTeso-1" value="Flat Network" style="text;strokeColor=none;align=center;fillColor=none;html=1;verticalAlign=middle;whiteSpace=wrap;rounded=0;fontSize=50;fontStyle=1" parent="1" vertex="1">
                    <mxGeometry x="560" y="60" width="560" height="30" as="geometry"/>
                </mxCell>
                <mxCell id="MXU2XjwiVFuVBiqzKaXe-5" style="edgeStyle=orthogonalEdgeStyle;html=1;entryX=0.5;entryY=0;entryDx=0;entryDy=0;fontFamily=Courier New;fontSize=22;fontColor=none;" parent="1" source="tMJELMss0j928xUBTeso-2" target="tMJELMss0j928xUBTeso-4" edge="1">
                    <mxGeometry relative="1" as="geometry"/>
                </mxCell>
                <mxCell id="MXU2XjwiVFuVBiqzKaXe-8" style="edgeStyle=orthogonalEdgeStyle;html=1;fontFamily=Courier New;fontSize=22;fontColor=none;" parent="1" source="tMJELMss0j928xUBTeso-2" edge="1">
                    <mxGeometry relative="1" as="geometry">
                        <mxPoint x="500" y="170" as="targetPoint"/>
                    </mxGeometry>
                </mxCell>
                <mxCell id="MXU2XjwiVFuVBiqzKaXe-9" style="edgeStyle=orthogonalEdgeStyle;html=1;fontFamily=Courier New;fontSize=22;fontColor=none;" parent="1" source="tMJELMss0j928xUBTeso-2" edge="1">
                    <mxGeometry relative="1" as="geometry">
                        <mxPoint x="690" y="325" as="targetPoint"/>
                    </mxGeometry>
                </mxCell>
                <mxCell id="tMJELMss0j928xUBTeso-2" value="" style="whiteSpace=wrap;html=1;fontSize=50;" parent="1" vertex="1">
                    <mxGeometry x="370" y="220" width="260" height="210" as="geometry"/>
                </mxCell>
                <mxCell id="tMJELMss0j928xUBTeso-3" value="B" style="whiteSpace=wrap;html=1;fontSize=50;" parent="1" vertex="1">
                    <mxGeometry x="800" y="1020" width="80" height="80" as="geometry"/>
                </mxCell>
                <mxCell id="MXU2XjwiVFuVBiqzKaXe-6" style="edgeStyle=orthogonalEdgeStyle;html=1;entryX=0.5;entryY=0;entryDx=0;entryDy=0;fontFamily=Courier New;fontSize=22;fontColor=none;" parent="1" source="tMJELMss0j928xUBTeso-4" target="tMJELMss0j928xUBTeso-5" edge="1">
                    <mxGeometry relative="1" as="geometry"/>
                </mxCell>
                <mxCell id="MXU2XjwiVFuVBiqzKaXe-12" style="edgeStyle=orthogonalEdgeStyle;html=1;fontFamily=Courier New;fontSize=22;fontColor=none;" parent="1" source="tMJELMss0j928xUBTeso-4" edge="1">
                    <mxGeometry relative="1" as="geometry">
                        <mxPoint x="760" y="625" as="targetPoint"/>
                    </mxGeometry>
                </mxCell>
                <mxCell id="MXU2XjwiVFuVBiqzKaXe-13" style="edgeStyle=orthogonalEdgeStyle;html=1;fontFamily=Courier New;fontSize=22;fontColor=none;" parent="1" source="tMJELMss0j928xUBTeso-4" edge="1">
                    <mxGeometry relative="1" as="geometry">
                        <mxPoint x="230" y="625" as="targetPoint"/>
                    </mxGeometry>
                </mxCell>
                <mxCell id="tMJELMss0j928xUBTeso-4" value="" style="whiteSpace=wrap;html=1;fontSize=50;" parent="1" vertex="1">
                    <mxGeometry x="370" y="520" width="260" height="210" as="geometry"/>
                </mxCell>
                <mxCell id="MXU2XjwiVFuVBiqzKaXe-7" style="edgeStyle=orthogonalEdgeStyle;html=1;entryX=0;entryY=0.75;entryDx=0;entryDy=0;fontFamily=Courier New;fontSize=22;fontColor=none;" parent="1" source="tMJELMss0j928xUBTeso-5" target="tMJELMss0j928xUBTeso-3" edge="1">
                    <mxGeometry relative="1" as="geometry">
                        <Array as="points">
                            <mxPoint x="500" y="1080"/>
                        </Array>
                    </mxGeometry>
                </mxCell>
                <mxCell id="MXU2XjwiVFuVBiqzKaXe-14" style="edgeStyle=orthogonalEdgeStyle;html=1;fontFamily=Courier New;fontSize=22;fontColor=none;" parent="1" source="tMJELMss0j928xUBTeso-5" edge="1">
                    <mxGeometry relative="1" as="geometry">
                        <mxPoint x="250" y="945" as="targetPoint"/>
                    </mxGeometry>
                </mxCell>
                <mxCell id="tMJELMss0j928xUBTeso-5" value="" style="whiteSpace=wrap;html=1;fontSize=50;" parent="1" vertex="1">
                    <mxGeometry x="370" y="840" width="260" height="210" as="geometry"/>
                </mxCell>
                <mxCell id="tMJELMss0j928xUBTeso-7" style="edgeStyle=orthogonalEdgeStyle;html=1;fontSize=50;entryX=-0.007;entryY=0.582;entryDx=0;entryDy=0;entryPerimeter=0;" parent="1" source="tMJELMss0j928xUBTeso-6" target="tMJELMss0j928xUBTeso-2" edge="1">
                    <mxGeometry relative="1" as="geometry">
                        <mxPoint x="120" y="400" as="targetPoint"/>
                        <Array as="points">
                            <mxPoint x="120" y="342"/>
                        </Array>
                    </mxGeometry>
                </mxCell>
                <mxCell id="tMJELMss0j928xUBTeso-6" value="A" style="whiteSpace=wrap;html=1;fontSize=50;" parent="1" vertex="1">
                    <mxGeometry x="110" y="200" width="80" height="80" as="geometry"/>
                </mxCell>
                <mxCell id="MXU2XjwiVFuVBiqzKaXe-2" value="Switches" style="text;strokeColor=none;align=center;fillColor=none;html=1;verticalAlign=middle;whiteSpace=wrap;rounded=0;fontSize=22;fontStyle=1" parent="1" vertex="1">
                    <mxGeometry x="490" y="1010" width="140" height="30" as="geometry"/>
                </mxCell>
                <mxCell id="MXU2XjwiVFuVBiqzKaXe-3" value="Switches" style="text;strokeColor=none;align=center;fillColor=none;html=1;verticalAlign=middle;whiteSpace=wrap;rounded=0;fontSize=22;fontStyle=1" parent="1" vertex="1">
                    <mxGeometry x="490" y="690" width="140" height="30" as="geometry"/>
                </mxCell>
                <mxCell id="MXU2XjwiVFuVBiqzKaXe-4" value="Switches" style="text;strokeColor=none;align=center;fillColor=none;html=1;verticalAlign=middle;whiteSpace=wrap;rounded=0;fontSize=22;fontStyle=1" parent="1" vertex="1">
                    <mxGeometry x="490" y="390" width="140" height="30" as="geometry"/>
                </mxCell>
                <mxCell id="MXU2XjwiVFuVBiqzKaXe-10" value="End Users&amp;nbsp;" style="text;strokeColor=none;align=center;fillColor=none;html=1;verticalAlign=middle;whiteSpace=wrap;rounded=0;fontSize=22;fontStyle=1" parent="1" vertex="1">
                    <mxGeometry x="420" y="130" width="140" height="30" as="geometry"/>
                </mxCell>
                <mxCell id="MXU2XjwiVFuVBiqzKaXe-11" value="End Users&amp;nbsp;" style="text;strokeColor=none;align=center;fillColor=none;html=1;verticalAlign=middle;whiteSpace=wrap;rounded=0;fontSize=22;fontStyle=1" parent="1" vertex="1">
                    <mxGeometry x="710" y="310" width="140" height="30" as="geometry"/>
                </mxCell>
                <mxCell id="MXU2XjwiVFuVBiqzKaXe-15" value="End Users&amp;nbsp;" style="text;strokeColor=none;align=center;fillColor=none;html=1;verticalAlign=middle;whiteSpace=wrap;rounded=0;fontSize=22;fontStyle=1" parent="1" vertex="1">
                    <mxGeometry x="70" y="610" width="140" height="30" as="geometry"/>
                </mxCell>
                <mxCell id="MXU2XjwiVFuVBiqzKaXe-16" value="End Users&amp;nbsp;" style="text;strokeColor=none;align=center;fillColor=none;html=1;verticalAlign=middle;whiteSpace=wrap;rounded=0;fontSize=22;fontStyle=1" parent="1" vertex="1">
                    <mxGeometry x="790" y="610" width="140" height="30" as="geometry"/>
                </mxCell>
                <mxCell id="MXU2XjwiVFuVBiqzKaXe-17" value="End Users&amp;nbsp;" style="text;strokeColor=none;align=center;fillColor=none;html=1;verticalAlign=middle;whiteSpace=wrap;rounded=0;fontSize=22;fontStyle=1" parent="1" vertex="1">
                    <mxGeometry x="70" y="930" width="140" height="30" as="geometry"/>
                </mxCell>
                <mxCell id="MXU2XjwiVFuVBiqzKaXe-18" value="192.168.0.51" style="text;strokeColor=none;align=center;fillColor=none;html=1;verticalAlign=middle;whiteSpace=wrap;rounded=0;fontSize=22;fontStyle=1" parent="1" vertex="1">
                    <mxGeometry x="110" y="150" width="140" height="30" as="geometry"/>
                </mxCell>
                <mxCell id="MXU2XjwiVFuVBiqzKaXe-19" value="172.168.0.12" style="text;strokeColor=none;align=center;fillColor=none;html=1;verticalAlign=middle;whiteSpace=wrap;rounded=0;fontSize=22;fontStyle=1" parent="1" vertex="1">
                    <mxGeometry x="790" y="970" width="140" height="30" as="geometry"/>
                </mxCell>
                <mxCell id="MXU2XjwiVFuVBiqzKaXe-22" value="Switch A wil carry about 150 MAC address" style="text;strokeColor=none;align=center;fillColor=none;html=1;verticalAlign=middle;whiteSpace=wrap;rounded=0;fontSize=22;fontStyle=1" parent="1" vertex="1">
                    <mxGeometry x="980" y="310" width="320" height="30" as="geometry"/>
                </mxCell>
                <mxCell id="MXU2XjwiVFuVBiqzKaXe-23" value="Switch will carry about 150 MAC address" style="text;strokeColor=none;align=center;fillColor=none;html=1;verticalAlign=middle;whiteSpace=wrap;rounded=0;fontSize=22;fontStyle=1" parent="1" vertex="1">
                    <mxGeometry x="1000" y="610" width="320" height="30" as="geometry"/>
                </mxCell>
                <mxCell id="MXU2XjwiVFuVBiqzKaXe-24" value="Switch will carry about 150 MAC address" style="text;strokeColor=none;align=center;fillColor=none;html=1;verticalAlign=middle;whiteSpace=wrap;rounded=0;fontSize=22;fontStyle=1" parent="1" vertex="1">
                    <mxGeometry x="1000" y="930" width="320" height="30" as="geometry"/>
                </mxCell>
                <mxCell id="MXU2XjwiVFuVBiqzKaXe-25" value="" style="edgeStyle=none;orthogonalLoop=1;jettySize=auto;html=1;fontFamily=Courier New;fontSize=22;fontColor=none;endArrow=none;endFill=0;" parent="1" edge="1">
                    <mxGeometry width="80" relative="1" as="geometry">
                        <mxPoint x="950" y="300" as="sourcePoint"/>
                        <mxPoint x="950" y="1010" as="targetPoint"/>
                        <Array as="points"/>
                    </mxGeometry>
                </mxCell>
                <mxCell id="MXU2XjwiVFuVBiqzKaXe-26" value="After broadcasting of every machine connected" style="text;strokeColor=none;align=center;fillColor=none;html=1;verticalAlign=middle;whiteSpace=wrap;rounded=0;fontSize=30;fontStyle=1" parent="1" vertex="1">
                    <mxGeometry x="930" y="180" width="420" height="30" as="geometry"/>
                </mxCell>
            </root>
        </mxGraphModel>
    </diagram>
    <diagram id="8i2b7sb-n_QkGZuMV0JI" name="Page-4">
        <mxGraphModel dx="859" dy="1890" grid="1" gridSize="10" guides="1" tooltips="1" connect="1" arrows="1" fold="1" page="1" pageScale="1" pageWidth="827" pageHeight="1169" math="0" shadow="0">
            <root>
                <mxCell id="0"/>
                <mxCell id="1" parent="0"/>
                <mxCell id="D7fIGcqLPZD8tCxexgP5-35" style="edgeStyle=orthogonalEdgeStyle;html=1;fontSize=22;fontColor=none;" parent="1" source="D7fIGcqLPZD8tCxexgP5-27" edge="1">
                    <mxGeometry relative="1" as="geometry">
                        <mxPoint x="310" y="215" as="targetPoint"/>
                    </mxGeometry>
                </mxCell>
                <mxCell id="D7fIGcqLPZD8tCxexgP5-36" style="edgeStyle=orthogonalEdgeStyle;html=1;fontSize=22;fontColor=none;" parent="1" source="D7fIGcqLPZD8tCxexgP5-27" edge="1">
                    <mxGeometry relative="1" as="geometry">
                        <mxPoint x="1100" y="215" as="targetPoint"/>
                    </mxGeometry>
                </mxCell>
                <mxCell id="D7fIGcqLPZD8tCxexgP5-27" value="" style="whiteSpace=wrap;html=1;fontSize=22;fontColor=none;noLabel=1;labelBorderColor=default;labelBackgroundColor=none;fillColor=none;" parent="1" vertex="1">
                    <mxGeometry x="400" y="90" width="560" height="250" as="geometry"/>
                </mxCell>
                <mxCell id="D7fIGcqLPZD8tCxexgP5-26" value="" style="whiteSpace=wrap;html=1;fontSize=22;fontColor=none;noLabel=1;labelBorderColor=default;labelBackgroundColor=none;fillColor=none;" parent="1" vertex="1">
                    <mxGeometry x="410" y="-370" width="560" height="370" as="geometry"/>
                </mxCell>
                <mxCell id="D7fIGcqLPZD8tCxexgP5-41" style="edgeStyle=orthogonalEdgeStyle;html=1;fontSize=22;fontColor=none;" parent="1" source="D7fIGcqLPZD8tCxexgP5-28" edge="1">
                    <mxGeometry relative="1" as="geometry">
                        <mxPoint x="1210" y="580" as="targetPoint"/>
                    </mxGeometry>
                </mxCell>
                <mxCell id="D7fIGcqLPZD8tCxexgP5-42" style="edgeStyle=orthogonalEdgeStyle;html=1;fontSize=22;fontColor=none;" parent="1" source="D7fIGcqLPZD8tCxexgP5-28" edge="1">
                    <mxGeometry relative="1" as="geometry">
                        <mxPoint x="250" y="580" as="targetPoint"/>
                    </mxGeometry>
                </mxCell>
                <mxCell id="D7fIGcqLPZD8tCxexgP5-28" value="" style="whiteSpace=wrap;html=1;fontSize=22;fontColor=none;noLabel=1;labelBorderColor=default;labelBackgroundColor=none;fillColor=none;" parent="1" vertex="1">
                    <mxGeometry x="430" y="420" width="590" height="320" as="geometry"/>
                </mxCell>
                <mxCell id="D7fIGcqLPZD8tCxexgP5-13" style="edgeStyle=orthogonalEdgeStyle;html=1;fontSize=50;" parent="1" source="D7fIGcqLPZD8tCxexgP5-1" edge="1">
                    <mxGeometry relative="1" as="geometry">
                        <mxPoint x="580" y="-300" as="targetPoint"/>
                    </mxGeometry>
                </mxCell>
                <mxCell id="D7fIGcqLPZD8tCxexgP5-15" style="edgeStyle=orthogonalEdgeStyle;html=1;fontSize=50;" parent="1" source="D7fIGcqLPZD8tCxexgP5-1" edge="1">
                    <mxGeometry relative="1" as="geometry">
                        <mxPoint x="770" y="-115" as="targetPoint"/>
                    </mxGeometry>
                </mxCell>
                <mxCell id="D7fIGcqLPZD8tCxexgP5-16" style="edgeStyle=orthogonalEdgeStyle;html=1;entryX=0.5;entryY=0;entryDx=0;entryDy=0;fontSize=50;" parent="1" source="D7fIGcqLPZD8tCxexgP5-1" target="D7fIGcqLPZD8tCxexgP5-10" edge="1">
                    <mxGeometry relative="1" as="geometry"/>
                </mxCell>
                <mxCell id="D7fIGcqLPZD8tCxexgP5-1" value="" style="whiteSpace=wrap;html=1;fontSize=50;" parent="1" vertex="1">
                    <mxGeometry x="450" y="-220" width="260" height="210" as="geometry"/>
                </mxCell>
                <mxCell id="D7fIGcqLPZD8tCxexgP5-2" value="B" style="whiteSpace=wrap;html=1;fontSize=50;" parent="1" vertex="1">
                    <mxGeometry x="900" y="620" width="80" height="80" as="geometry"/>
                </mxCell>
                <mxCell id="caW168xAI1PEUpmEt8y0-1" style="edgeStyle=orthogonalEdgeStyle;html=1;entryX=0.5;entryY=0;entryDx=0;entryDy=0;fontFamily=Courier New;fontSize=40;fontColor=none;" parent="1" source="D7fIGcqLPZD8tCxexgP5-3" target="D7fIGcqLPZD8tCxexgP5-12" edge="1">
                    <mxGeometry relative="1" as="geometry"/>
                </mxCell>
                <mxCell id="D7fIGcqLPZD8tCxexgP5-3" value="" style="whiteSpace=wrap;html=1;fontSize=50;" parent="1" vertex="1">
                    <mxGeometry x="460" y="100" width="260" height="210" as="geometry"/>
                </mxCell>
                <mxCell id="D7fIGcqLPZD8tCxexgP5-30" style="edgeStyle=orthogonalEdgeStyle;html=1;fontSize=22;fontColor=none;" parent="1" source="D7fIGcqLPZD8tCxexgP5-4" target="D7fIGcqLPZD8tCxexgP5-2" edge="1">
                    <mxGeometry relative="1" as="geometry">
                        <Array as="points">
                            <mxPoint x="600" y="660"/>
                        </Array>
                    </mxGeometry>
                </mxCell>
                <mxCell id="D7fIGcqLPZD8tCxexgP5-4" value="" style="whiteSpace=wrap;html=1;fontSize=50;" parent="1" vertex="1">
                    <mxGeometry x="470" y="440" width="260" height="210" as="geometry"/>
                </mxCell>
                <mxCell id="D7fIGcqLPZD8tCxexgP5-11" style="edgeStyle=orthogonalEdgeStyle;html=1;fontSize=50;" parent="1" source="D7fIGcqLPZD8tCxexgP5-6" target="D7fIGcqLPZD8tCxexgP5-1" edge="1">
                    <mxGeometry relative="1" as="geometry">
                        <Array as="points">
                            <mxPoint x="250" y="-115"/>
                        </Array>
                    </mxGeometry>
                </mxCell>
                <mxCell id="D7fIGcqLPZD8tCxexgP5-6" value="A" style="whiteSpace=wrap;html=1;fontSize=50;" parent="1" vertex="1">
                    <mxGeometry x="230" y="-220" width="80" height="80" as="geometry"/>
                </mxCell>
                <mxCell id="D7fIGcqLPZD8tCxexgP5-7" value="Routers" style="text;strokeColor=none;align=center;fillColor=none;html=1;verticalAlign=middle;whiteSpace=wrap;rounded=0;fontSize=50;fontStyle=1" parent="1" vertex="1">
                    <mxGeometry x="770" y="-540" width="60" height="30" as="geometry"/>
                </mxCell>
                <mxCell id="caW168xAI1PEUpmEt8y0-3" style="edgeStyle=orthogonalEdgeStyle;html=1;entryX=0.461;entryY=-0.001;entryDx=0;entryDy=0;entryPerimeter=0;fontFamily=Courier New;fontSize=40;fontColor=none;" parent="1" source="D7fIGcqLPZD8tCxexgP5-10" target="D7fIGcqLPZD8tCxexgP5-3" edge="1">
                    <mxGeometry relative="1" as="geometry"/>
                </mxCell>
                <mxCell id="D7fIGcqLPZD8tCxexgP5-10" value="" style="whiteSpace=wrap;html=1;fontSize=50;" parent="1" vertex="1">
                    <mxGeometry x="540" y="10" width="80" height="80" as="geometry"/>
                </mxCell>
                <mxCell id="caW168xAI1PEUpmEt8y0-2" style="edgeStyle=orthogonalEdgeStyle;html=1;entryX=0.461;entryY=0.003;entryDx=0;entryDy=0;entryPerimeter=0;fontFamily=Courier New;fontSize=40;fontColor=none;" parent="1" source="D7fIGcqLPZD8tCxexgP5-12" target="D7fIGcqLPZD8tCxexgP5-4" edge="1">
                    <mxGeometry relative="1" as="geometry"/>
                </mxCell>
                <mxCell id="D7fIGcqLPZD8tCxexgP5-12" value="" style="whiteSpace=wrap;html=1;fontSize=50;" parent="1" vertex="1">
                    <mxGeometry x="550" y="330" width="80" height="80" as="geometry"/>
                </mxCell>
                <mxCell id="D7fIGcqLPZD8tCxexgP5-45" style="edgeStyle=orthogonalEdgeStyle;html=1;fontSize=22;fontColor=none;" parent="1" source="D7fIGcqLPZD8tCxexgP5-17" edge="1">
                    <mxGeometry relative="1" as="geometry">
                        <mxPoint x="1240.689655172414" y="-59.99999999999977" as="targetPoint"/>
                    </mxGeometry>
                </mxCell>
                <mxCell id="D7fIGcqLPZD8tCxexgP5-17" value="Routers" style="text;strokeColor=none;align=center;fillColor=none;html=1;verticalAlign=middle;whiteSpace=wrap;rounded=0;fontSize=22;fontStyle=1" parent="1" vertex="1">
                    <mxGeometry x="650" y="30" width="60" height="30" as="geometry"/>
                </mxCell>
                <mxCell id="D7fIGcqLPZD8tCxexgP5-48" style="edgeStyle=orthogonalEdgeStyle;html=1;entryX=0.5;entryY=1;entryDx=0;entryDy=0;fontSize=18;fontColor=none;" parent="1" source="D7fIGcqLPZD8tCxexgP5-20" target="D7fIGcqLPZD8tCxexgP5-47" edge="1">
                    <mxGeometry relative="1" as="geometry"/>
                </mxCell>
                <mxCell id="D7fIGcqLPZD8tCxexgP5-20" value="Routers" style="text;strokeColor=none;align=center;fillColor=none;html=1;verticalAlign=middle;whiteSpace=wrap;rounded=0;fontSize=22;fontStyle=1" parent="1" vertex="1">
                    <mxGeometry x="650" y="370" width="60" height="30" as="geometry"/>
                </mxCell>
                <mxCell id="D7fIGcqLPZD8tCxexgP5-21" value="End Hosts" style="text;strokeColor=none;align=center;fillColor=none;html=1;verticalAlign=middle;whiteSpace=wrap;rounded=0;fontSize=22;fontStyle=1" parent="1" vertex="1">
                    <mxGeometry x="560" y="-340" width="60" height="30" as="geometry"/>
                </mxCell>
                <mxCell id="D7fIGcqLPZD8tCxexgP5-23" value="End Hosts" style="text;strokeColor=none;align=center;fillColor=none;html=1;verticalAlign=middle;whiteSpace=wrap;rounded=0;fontSize=22;fontStyle=1" parent="1" vertex="1">
                    <mxGeometry x="790" y="-130" width="60" height="30" as="geometry"/>
                </mxCell>
                <mxCell id="D7fIGcqLPZD8tCxexgP5-31" value="Network 1" style="text;strokeColor=none;align=center;fillColor=none;html=1;verticalAlign=middle;whiteSpace=wrap;rounded=0;fontSize=22;fontStyle=1" parent="1" vertex="1">
                    <mxGeometry x="810" y="-310" width="130" height="30" as="geometry"/>
                </mxCell>
                <mxCell id="D7fIGcqLPZD8tCxexgP5-32" value="Network 2" style="text;strokeColor=none;align=center;fillColor=none;html=1;verticalAlign=middle;whiteSpace=wrap;rounded=0;fontSize=22;fontStyle=1" parent="1" vertex="1">
                    <mxGeometry x="820" y="100" width="130" height="30" as="geometry"/>
                </mxCell>
                <mxCell id="D7fIGcqLPZD8tCxexgP5-33" value="Network 3" style="text;strokeColor=none;align=center;fillColor=none;html=1;verticalAlign=middle;whiteSpace=wrap;rounded=0;fontSize=22;fontStyle=1" parent="1" vertex="1">
                    <mxGeometry x="850" y="440" width="130" height="30" as="geometry"/>
                </mxCell>
                <mxCell id="D7fIGcqLPZD8tCxexgP5-37" value="End Hosts" style="text;strokeColor=none;align=center;fillColor=none;html=1;verticalAlign=middle;whiteSpace=wrap;rounded=0;fontSize=22;fontStyle=1" parent="1" vertex="1">
                    <mxGeometry x="1140" y="200" width="60" height="30" as="geometry"/>
                </mxCell>
                <mxCell id="D7fIGcqLPZD8tCxexgP5-38" value="End Hosts" style="text;strokeColor=none;align=center;fillColor=none;html=1;verticalAlign=middle;whiteSpace=wrap;rounded=0;fontSize=22;fontStyle=1" parent="1" vertex="1">
                    <mxGeometry x="230" y="190" width="60" height="60" as="geometry"/>
                </mxCell>
                <mxCell id="D7fIGcqLPZD8tCxexgP5-39" value="End Hosts" style="text;strokeColor=none;align=center;fillColor=none;html=1;verticalAlign=middle;whiteSpace=wrap;rounded=0;fontSize=22;fontStyle=1" parent="1" vertex="1">
                    <mxGeometry x="810" y="510" width="60" height="60" as="geometry"/>
                </mxCell>
                <mxCell id="D7fIGcqLPZD8tCxexgP5-43" value="End Hosts" style="text;strokeColor=none;align=center;fillColor=none;html=1;verticalAlign=middle;whiteSpace=wrap;rounded=0;fontSize=22;fontStyle=1" parent="1" vertex="1">
                    <mxGeometry x="160" y="550" width="60" height="60" as="geometry"/>
                </mxCell>
                <mxCell id="D7fIGcqLPZD8tCxexgP5-44" value="End Hosts" style="text;strokeColor=none;align=center;fillColor=none;html=1;verticalAlign=middle;whiteSpace=wrap;rounded=0;fontSize=22;fontStyle=1" parent="1" vertex="1">
                    <mxGeometry x="1250" y="550" width="60" height="60" as="geometry"/>
                </mxCell>
                <mxCell id="D7fIGcqLPZD8tCxexgP5-46" value="These routers hold the complete network of Network 1 and 2" style="text;strokeColor=none;align=center;fillColor=none;html=1;verticalAlign=middle;whiteSpace=wrap;rounded=0;labelBackgroundColor=none;labelBorderColor=none;fontSize=18;fontColor=none;" parent="1" vertex="1">
                    <mxGeometry x="1040" y="-110" width="410" height="30" as="geometry"/>
                </mxCell>
                <mxCell id="D7fIGcqLPZD8tCxexgP5-47" value="These routers hold the complete network of Network 2 and 3" style="text;strokeColor=none;align=center;fillColor=none;html=1;verticalAlign=middle;whiteSpace=wrap;rounded=0;labelBackgroundColor=none;labelBorderColor=none;fontSize=18;fontColor=none;" parent="1" vertex="1">
                    <mxGeometry x="1090" y="290" width="410" height="50" as="geometry"/>
                </mxCell>
            </root>
        </mxGraphModel>
    </diagram>
    <diagram id="4yoLNYrhQXGK4Uci9l-K" name="Page-5">
        <mxGraphModel dx="2298" dy="1710" grid="1" gridSize="10" guides="1" tooltips="1" connect="1" arrows="1" fold="1" page="1" pageScale="1" pageWidth="827" pageHeight="1169" math="0" shadow="0">
            <root>
                <mxCell id="0"/>
                <mxCell id="1" parent="0"/>
                <mxCell id="WzallhFKJ68EZfIiA_l8-1" value="Binary" style="text;strokeColor=none;align=center;fillColor=none;html=1;verticalAlign=middle;whiteSpace=wrap;rounded=0;labelBackgroundColor=none;labelBorderColor=none;fontSize=40;fontColor=none;fontStyle=1" parent="1" vertex="1">
                    <mxGeometry x="790" y="-1120" width="60" height="30" as="geometry"/>
                </mxCell>
                <mxCell id="WzallhFKJ68EZfIiA_l8-4" value="128" style="text;strokeColor=none;align=center;fillColor=none;html=1;verticalAlign=middle;whiteSpace=wrap;rounded=0;labelBackgroundColor=none;labelBorderColor=none;fontSize=40;fontColor=none;fontStyle=1" parent="1" vertex="1">
                    <mxGeometry x="200" y="-990" width="60" height="30" as="geometry"/>
                </mxCell>
                <mxCell id="WzallhFKJ68EZfIiA_l8-5" value="192" style="text;strokeColor=none;align=center;fillColor=none;html=1;verticalAlign=middle;whiteSpace=wrap;rounded=0;labelBackgroundColor=none;labelBorderColor=none;fontSize=40;fontColor=none;fontStyle=1" parent="1" vertex="1">
                    <mxGeometry x="200" y="-930" width="60" height="30" as="geometry"/>
                </mxCell>
                <mxCell id="WzallhFKJ68EZfIiA_l8-6" value="224" style="text;strokeColor=none;align=center;fillColor=none;html=1;verticalAlign=middle;whiteSpace=wrap;rounded=0;labelBackgroundColor=none;labelBorderColor=none;fontSize=40;fontColor=none;fontStyle=1" parent="1" vertex="1">
                    <mxGeometry x="200" y="-870" width="60" height="30" as="geometry"/>
                </mxCell>
                <mxCell id="WzallhFKJ68EZfIiA_l8-7" value="240" style="text;strokeColor=none;align=center;fillColor=none;html=1;verticalAlign=middle;whiteSpace=wrap;rounded=0;labelBackgroundColor=none;labelBorderColor=none;fontSize=40;fontColor=none;fontStyle=1" parent="1" vertex="1">
                    <mxGeometry x="200" y="-810" width="60" height="30" as="geometry"/>
                </mxCell>
                <mxCell id="WzallhFKJ68EZfIiA_l8-8" value="248" style="text;strokeColor=none;align=center;fillColor=none;html=1;verticalAlign=middle;whiteSpace=wrap;rounded=0;labelBackgroundColor=none;labelBorderColor=none;fontSize=40;fontColor=none;fontStyle=1" parent="1" vertex="1">
                    <mxGeometry x="200" y="-750" width="60" height="30" as="geometry"/>
                </mxCell>
                <mxCell id="WzallhFKJ68EZfIiA_l8-10" value="252" style="text;strokeColor=none;align=center;fillColor=none;html=1;verticalAlign=middle;whiteSpace=wrap;rounded=0;labelBackgroundColor=none;labelBorderColor=none;fontSize=40;fontColor=none;fontStyle=1" parent="1" vertex="1">
                    <mxGeometry x="200" y="-690" width="60" height="30" as="geometry"/>
                </mxCell>
                <mxCell id="WzallhFKJ68EZfIiA_l8-11" value="254" style="text;strokeColor=none;align=center;fillColor=none;html=1;verticalAlign=middle;whiteSpace=wrap;rounded=0;labelBackgroundColor=none;labelBorderColor=none;fontSize=40;fontColor=none;fontStyle=1" parent="1" vertex="1">
                    <mxGeometry x="200" y="-630" width="60" height="30" as="geometry"/>
                </mxCell>
                <mxCell id="WzallhFKJ68EZfIiA_l8-12" value="255" style="text;strokeColor=none;align=center;fillColor=none;html=1;verticalAlign=middle;whiteSpace=wrap;rounded=0;labelBackgroundColor=none;labelBorderColor=none;fontSize=40;fontColor=none;fontStyle=1" parent="1" vertex="1">
                    <mxGeometry x="200" y="-570" width="60" height="30" as="geometry"/>
                </mxCell>
                <mxCell id="WzallhFKJ68EZfIiA_l8-16" value="&lt;font face=&quot;Courier New&quot;&gt;1000 0000&lt;/font&gt;" style="text;strokeColor=none;align=center;fillColor=none;html=1;verticalAlign=middle;whiteSpace=wrap;rounded=0;labelBackgroundColor=none;labelBorderColor=none;fontSize=40;fontColor=none;fontStyle=1" parent="1" vertex="1">
                    <mxGeometry x="310" y="-990" width="290" height="30" as="geometry"/>
                </mxCell>
                <mxCell id="WzallhFKJ68EZfIiA_l8-24" value="&lt;font face=&quot;Courier New&quot;&gt;1100 0000&lt;/font&gt;" style="text;strokeColor=none;align=center;fillColor=none;html=1;verticalAlign=middle;whiteSpace=wrap;rounded=0;labelBackgroundColor=none;labelBorderColor=none;fontSize=40;fontColor=none;fontStyle=1" parent="1" vertex="1">
                    <mxGeometry x="310" y="-930" width="290" height="30" as="geometry"/>
                </mxCell>
                <mxCell id="WzallhFKJ68EZfIiA_l8-25" value="&lt;font face=&quot;Courier New&quot;&gt;1110 0000&lt;/font&gt;" style="text;strokeColor=none;align=center;fillColor=none;html=1;verticalAlign=middle;whiteSpace=wrap;rounded=0;labelBackgroundColor=none;labelBorderColor=none;fontSize=40;fontColor=none;fontStyle=1" parent="1" vertex="1">
                    <mxGeometry x="310" y="-870" width="290" height="30" as="geometry"/>
                </mxCell>
                <mxCell id="WzallhFKJ68EZfIiA_l8-26" value="&lt;font face=&quot;Courier New&quot;&gt;1111 0000&lt;/font&gt;" style="text;strokeColor=none;align=center;fillColor=none;html=1;verticalAlign=middle;whiteSpace=wrap;rounded=0;labelBackgroundColor=none;labelBorderColor=none;fontSize=40;fontColor=none;fontStyle=1" parent="1" vertex="1">
                    <mxGeometry x="310" y="-810" width="290" height="30" as="geometry"/>
                </mxCell>
                <mxCell id="WzallhFKJ68EZfIiA_l8-27" value="&lt;font face=&quot;Courier New&quot;&gt;1111 1000&lt;/font&gt;" style="text;strokeColor=none;align=center;fillColor=none;html=1;verticalAlign=middle;whiteSpace=wrap;rounded=0;labelBackgroundColor=none;labelBorderColor=none;fontSize=40;fontColor=none;fontStyle=1" parent="1" vertex="1">
                    <mxGeometry x="310" y="-744" width="290" height="30" as="geometry"/>
                </mxCell>
                <mxCell id="WzallhFKJ68EZfIiA_l8-28" value="&lt;font face=&quot;Courier New&quot;&gt;1111 1100&lt;/font&gt;" style="text;strokeColor=none;align=center;fillColor=none;html=1;verticalAlign=middle;whiteSpace=wrap;rounded=0;labelBackgroundColor=none;labelBorderColor=none;fontSize=40;fontColor=none;fontStyle=1" parent="1" vertex="1">
                    <mxGeometry x="310" y="-684" width="290" height="30" as="geometry"/>
                </mxCell>
                <mxCell id="WzallhFKJ68EZfIiA_l8-29" value="&lt;font face=&quot;Courier New&quot;&gt;1111 1110&lt;/font&gt;" style="text;strokeColor=none;align=center;fillColor=none;html=1;verticalAlign=middle;whiteSpace=wrap;rounded=0;labelBackgroundColor=none;labelBorderColor=none;fontSize=40;fontColor=none;fontStyle=1" parent="1" vertex="1">
                    <mxGeometry x="310" y="-630" width="290" height="30" as="geometry"/>
                </mxCell>
                <mxCell id="WzallhFKJ68EZfIiA_l8-30" value="&lt;font face=&quot;Courier New&quot;&gt;1111 1111&lt;/font&gt;" style="text;strokeColor=none;align=center;fillColor=none;html=1;verticalAlign=middle;whiteSpace=wrap;rounded=0;labelBackgroundColor=none;labelBorderColor=none;fontSize=40;fontColor=none;fontStyle=1" parent="1" vertex="1">
                    <mxGeometry x="310" y="-570" width="290" height="30" as="geometry"/>
                </mxCell>
                <mxCell id="PWgpfMuqtMjIcW_rRHbh-2" value="" style="ellipse;whiteSpace=wrap;html=1;rounded=0;labelBackgroundColor=none;labelBorderColor=none;fontFamily=Courier New;fontSize=30;fontColor=none;fillColor=none;gradientColor=none;" parent="1" vertex="1">
                    <mxGeometry x="-797" y="-930" width="500" height="510" as="geometry"/>
                </mxCell>
                <mxCell id="PWgpfMuqtMjIcW_rRHbh-3" value="" style="ellipse;whiteSpace=wrap;html=1;rounded=0;labelBackgroundColor=none;labelBorderColor=none;fontFamily=Courier New;fontSize=30;fontColor=none;fillColor=none;gradientColor=none;" parent="1" vertex="1">
                    <mxGeometry x="-607.45" y="-910" width="127.45" height="130" as="geometry"/>
                </mxCell>
                <mxCell id="PWgpfMuqtMjIcW_rRHbh-21" style="edgeStyle=orthogonalEdgeStyle;html=1;entryX=0.75;entryY=0;entryDx=0;entryDy=0;fontFamily=Courier New;fontSize=30;fontColor=none;endArrow=none;endFill=0;" parent="1" source="PWgpfMuqtMjIcW_rRHbh-4" target="PWgpfMuqtMjIcW_rRHbh-19" edge="1">
                    <mxGeometry relative="1" as="geometry"/>
                </mxCell>
                <mxCell id="PWgpfMuqtMjIcW_rRHbh-4" value="" style="ellipse;whiteSpace=wrap;html=1;rounded=0;labelBackgroundColor=none;labelBorderColor=none;fontFamily=Courier New;fontSize=30;fontColor=none;fillColor=none;gradientColor=none;" parent="1" vertex="1">
                    <mxGeometry x="-550" y="-590" width="107.84" height="110" as="geometry"/>
                </mxCell>
                <mxCell id="PWgpfMuqtMjIcW_rRHbh-25" style="edgeStyle=orthogonalEdgeStyle;html=1;fontFamily=Courier New;fontSize=30;fontColor=none;endArrow=none;endFill=0;" parent="1" source="PWgpfMuqtMjIcW_rRHbh-5" edge="1">
                    <mxGeometry relative="1" as="geometry">
                        <mxPoint x="-880" y="-490" as="targetPoint"/>
                    </mxGeometry>
                </mxCell>
                <mxCell id="PWgpfMuqtMjIcW_rRHbh-5" value="" style="ellipse;whiteSpace=wrap;html=1;rounded=0;labelBackgroundColor=none;labelBorderColor=none;fontFamily=Courier New;fontSize=30;fontColor=none;fillColor=none;gradientColor=none;" parent="1" vertex="1">
                    <mxGeometry x="-697" y="-590" width="88.24" height="90" as="geometry"/>
                </mxCell>
                <mxCell id="PWgpfMuqtMjIcW_rRHbh-6" value="" style="ellipse;whiteSpace=wrap;html=1;rounded=0;labelBackgroundColor=none;labelBorderColor=none;fontFamily=Courier New;fontSize=30;fontColor=none;fillColor=none;gradientColor=none;" parent="1" vertex="1">
                    <mxGeometry x="-768.4300000000001" y="-715" width="78.43" height="80" as="geometry"/>
                </mxCell>
                <mxCell id="PWgpfMuqtMjIcW_rRHbh-9" style="edgeStyle=orthogonalEdgeStyle;html=1;entryX=0;entryY=0.5;entryDx=0;entryDy=0;fontFamily=Courier New;fontSize=30;fontColor=none;endArrow=none;endFill=0;" parent="1" source="PWgpfMuqtMjIcW_rRHbh-7" target="PWgpfMuqtMjIcW_rRHbh-3" edge="1">
                    <mxGeometry relative="1" as="geometry"/>
                </mxCell>
                <mxCell id="PWgpfMuqtMjIcW_rRHbh-7" value="202.208.220.32" style="text;strokeColor=none;align=center;fillColor=none;html=1;verticalAlign=middle;whiteSpace=wrap;rounded=0;labelBackgroundColor=none;labelBorderColor=none;fontFamily=Courier New;fontSize=30;fontColor=none;" parent="1" vertex="1">
                    <mxGeometry x="-647" y="-1000" width="60" height="30" as="geometry"/>
                </mxCell>
                <mxCell id="PWgpfMuqtMjIcW_rRHbh-12" style="edgeStyle=orthogonalEdgeStyle;html=1;fontFamily=Courier New;fontSize=30;fontColor=none;endArrow=none;endFill=0;" parent="1" source="PWgpfMuqtMjIcW_rRHbh-10" target="PWgpfMuqtMjIcW_rRHbh-6" edge="1">
                    <mxGeometry relative="1" as="geometry">
                        <Array as="points">
                            <mxPoint x="-990" y="-675"/>
                        </Array>
                    </mxGeometry>
                </mxCell>
                <mxCell id="PWgpfMuqtMjIcW_rRHbh-10" value="202.208.220.64" style="text;strokeColor=none;align=center;fillColor=none;html=1;verticalAlign=middle;whiteSpace=wrap;rounded=0;labelBackgroundColor=none;labelBorderColor=none;fontFamily=Courier New;fontSize=30;fontColor=none;" parent="1" vertex="1">
                    <mxGeometry x="-1020" y="-750" width="60" height="30" as="geometry"/>
                </mxCell>
                <mxCell id="PWgpfMuqtMjIcW_rRHbh-24" style="edgeStyle=orthogonalEdgeStyle;html=1;entryX=0.75;entryY=1;entryDx=0;entryDy=0;fontFamily=Courier New;fontSize=30;fontColor=none;endArrow=none;endFill=0;" parent="1" source="PWgpfMuqtMjIcW_rRHbh-15" target="PWgpfMuqtMjIcW_rRHbh-22" edge="1">
                    <mxGeometry relative="1" as="geometry"/>
                </mxCell>
                <mxCell id="PWgpfMuqtMjIcW_rRHbh-15" value="" style="ellipse;whiteSpace=wrap;html=1;rounded=0;labelBackgroundColor=none;labelBorderColor=none;fontFamily=Courier New;fontSize=30;fontColor=none;fillColor=none;gradientColor=none;" parent="1" vertex="1">
                    <mxGeometry x="-470" y="-765" width="127.45" height="130" as="geometry"/>
                </mxCell>
                <mxCell id="PWgpfMuqtMjIcW_rRHbh-18" value="202.208.220.128" style="text;strokeColor=none;align=center;fillColor=none;html=1;verticalAlign=middle;whiteSpace=wrap;rounded=0;labelBackgroundColor=none;labelBorderColor=none;fontFamily=Courier New;fontSize=30;fontColor=none;" parent="1" vertex="1">
                    <mxGeometry x="-910" y="-480" width="60" height="30" as="geometry"/>
                </mxCell>
                <mxCell id="PWgpfMuqtMjIcW_rRHbh-19" value="202.208.220.192" style="text;strokeColor=none;align=center;fillColor=none;html=1;verticalAlign=middle;whiteSpace=wrap;rounded=0;labelBackgroundColor=none;labelBorderColor=none;fontFamily=Courier New;fontSize=30;fontColor=none;" parent="1" vertex="1">
                    <mxGeometry x="-320" y="-410" width="60" height="30" as="geometry"/>
                </mxCell>
                <mxCell id="PWgpfMuqtMjIcW_rRHbh-22" value="202.208.220.224" style="text;strokeColor=none;align=center;fillColor=none;html=1;verticalAlign=middle;whiteSpace=wrap;rounded=0;labelBackgroundColor=none;labelBorderColor=none;fontFamily=Courier New;fontSize=30;fontColor=none;" parent="1" vertex="1">
                    <mxGeometry x="-180" y="-760" width="60" height="30" as="geometry"/>
                </mxCell>
                <mxCell id="PWgpfMuqtMjIcW_rRHbh-28" value="202.208.220.224" style="text;strokeColor=none;align=center;fillColor=none;html=1;verticalAlign=middle;whiteSpace=wrap;rounded=0;labelBackgroundColor=none;labelBorderColor=none;fontFamily=Courier New;fontSize=50;fontColor=none;fontStyle=1" parent="1" vertex="1">
                    <mxGeometry x="-860" y="-1100" width="610" height="50" as="geometry"/>
                </mxCell>
                <mxCell id="PWgpfMuqtMjIcW_rRHbh-30" value="255.255.255.224" style="text;strokeColor=none;align=center;fillColor=none;html=1;verticalAlign=middle;whiteSpace=wrap;rounded=0;labelBackgroundColor=none;labelBorderColor=none;fontFamily=Courier New;fontSize=50;fontColor=none;fontStyle=1" parent="1" vertex="1">
                    <mxGeometry x="-1450" y="-960" width="610" height="50" as="geometry"/>
                </mxCell>
                <mxCell id="PWgpfMuqtMjIcW_rRHbh-31" value="Subnet" style="text;strokeColor=none;align=center;fillColor=none;html=1;verticalAlign=middle;whiteSpace=wrap;rounded=0;labelBackgroundColor=none;labelBorderColor=none;fontFamily=Helvetica;fontSize=50;fontColor=none;fontStyle=1" parent="1" vertex="1">
                    <mxGeometry x="-1580" y="-1020" width="610" height="50" as="geometry"/>
                </mxCell>
                <mxCell id="dMr9FAkAcw1lF0k9sU2F-2" value="128" style="text;strokeColor=none;align=center;fillColor=none;html=1;verticalAlign=middle;whiteSpace=wrap;rounded=0;labelBackgroundColor=none;labelBorderColor=none;fontSize=40;fontColor=none;fontStyle=1" parent="1" vertex="1">
                    <mxGeometry x="820" y="-990" width="60" height="30" as="geometry"/>
                </mxCell>
                <mxCell id="dMr9FAkAcw1lF0k9sU2F-3" value="192" style="text;strokeColor=none;align=center;fillColor=none;html=1;verticalAlign=middle;whiteSpace=wrap;rounded=0;labelBackgroundColor=none;labelBorderColor=none;fontSize=40;fontColor=none;fontStyle=1" parent="1" vertex="1">
                    <mxGeometry x="950" y="-990" width="60" height="30" as="geometry"/>
                </mxCell>
                <mxCell id="dMr9FAkAcw1lF0k9sU2F-6" value="224" style="text;strokeColor=none;align=center;fillColor=none;html=1;verticalAlign=middle;whiteSpace=wrap;rounded=0;labelBackgroundColor=none;labelBorderColor=none;fontSize=40;fontColor=none;fontStyle=1" parent="1" vertex="1">
                    <mxGeometry x="1080" y="-990" width="60" height="30" as="geometry"/>
                </mxCell>
                <mxCell id="dMr9FAkAcw1lF0k9sU2F-7" value="240" style="text;strokeColor=none;align=center;fillColor=none;html=1;verticalAlign=middle;whiteSpace=wrap;rounded=0;labelBackgroundColor=none;labelBorderColor=none;fontSize=40;fontColor=none;fontStyle=1" parent="1" vertex="1">
                    <mxGeometry x="1210" y="-990" width="60" height="30" as="geometry"/>
                </mxCell>
                <mxCell id="dMr9FAkAcw1lF0k9sU2F-8" value="248" style="text;strokeColor=none;align=center;fillColor=none;html=1;verticalAlign=middle;whiteSpace=wrap;rounded=0;labelBackgroundColor=none;labelBorderColor=none;fontSize=40;fontColor=none;fontStyle=1" parent="1" vertex="1">
                    <mxGeometry x="1340" y="-990" width="60" height="30" as="geometry"/>
                </mxCell>
                <mxCell id="dMr9FAkAcw1lF0k9sU2F-9" value="252" style="text;strokeColor=none;align=center;fillColor=none;html=1;verticalAlign=middle;whiteSpace=wrap;rounded=0;labelBackgroundColor=none;labelBorderColor=none;fontSize=40;fontColor=none;fontStyle=1" parent="1" vertex="1">
                    <mxGeometry x="1470" y="-990" width="60" height="30" as="geometry"/>
                </mxCell>
                <mxCell id="dMr9FAkAcw1lF0k9sU2F-10" value="254" style="text;strokeColor=none;align=center;fillColor=none;html=1;verticalAlign=middle;whiteSpace=wrap;rounded=0;labelBackgroundColor=none;labelBorderColor=none;fontSize=40;fontColor=none;fontStyle=1" parent="1" vertex="1">
                    <mxGeometry x="1600" y="-990" width="60" height="30" as="geometry"/>
                </mxCell>
                <mxCell id="dMr9FAkAcw1lF0k9sU2F-11" value="255" style="text;strokeColor=none;align=center;fillColor=none;html=1;verticalAlign=middle;whiteSpace=wrap;rounded=0;labelBackgroundColor=none;labelBorderColor=none;fontSize=40;fontColor=none;fontStyle=1" parent="1" vertex="1">
                    <mxGeometry x="1730" y="-990" width="60" height="30" as="geometry"/>
                </mxCell>
                <mxCell id="dMr9FAkAcw1lF0k9sU2F-12" value="&lt;font face=&quot;Courier New&quot;&gt;.1&lt;/font&gt;" style="text;strokeColor=none;align=center;fillColor=none;html=1;verticalAlign=middle;whiteSpace=wrap;rounded=0;labelBackgroundColor=none;labelBorderColor=none;fontSize=40;fontColor=none;fontStyle=1" parent="1" vertex="1">
                    <mxGeometry x="1730" y="-920" width="60" height="30" as="geometry"/>
                </mxCell>
                <mxCell id="dMr9FAkAcw1lF0k9sU2F-15" value="&lt;font face=&quot;Courier New&quot;&gt;.2&lt;/font&gt;" style="text;strokeColor=none;align=center;fillColor=none;html=1;verticalAlign=middle;whiteSpace=wrap;rounded=0;labelBackgroundColor=none;labelBorderColor=none;fontSize=40;fontColor=none;fontStyle=1" parent="1" vertex="1">
                    <mxGeometry x="1600" y="-920" width="60" height="30" as="geometry"/>
                </mxCell>
                <mxCell id="dMr9FAkAcw1lF0k9sU2F-18" value="&lt;font style=&quot;font-size: 50px;&quot;&gt;W.X.Y.0/29&lt;/font&gt;" style="text;strokeColor=none;align=left;fillColor=none;html=1;verticalAlign=middle;whiteSpace=wrap;rounded=0;" parent="1" vertex="1">
                    <mxGeometry x="240" y="-120" width="270" height="60" as="geometry"/>
                </mxCell>
                <mxCell id="dMr9FAkAcw1lF0k9sU2F-19" value="&lt;font face=&quot;Courier New&quot;&gt;.4&lt;/font&gt;" style="text;strokeColor=none;align=center;fillColor=none;html=1;verticalAlign=middle;whiteSpace=wrap;rounded=0;labelBackgroundColor=none;labelBorderColor=none;fontSize=40;fontColor=none;fontStyle=1" parent="1" vertex="1">
                    <mxGeometry x="1470" y="-920" width="60" height="30" as="geometry"/>
                </mxCell>
                <mxCell id="dMr9FAkAcw1lF0k9sU2F-22" value="&lt;font face=&quot;Courier New&quot;&gt;.8&lt;/font&gt;" style="text;strokeColor=none;align=center;fillColor=none;html=1;verticalAlign=middle;whiteSpace=wrap;rounded=0;labelBackgroundColor=none;labelBorderColor=none;fontSize=40;fontColor=none;fontStyle=1" parent="1" vertex="1">
                    <mxGeometry x="1340" y="-920" width="60" height="30" as="geometry"/>
                </mxCell>
                <mxCell id="dMr9FAkAcw1lF0k9sU2F-25" value="&lt;font face=&quot;Courier New&quot;&gt;.16&lt;/font&gt;" style="text;strokeColor=none;align=center;fillColor=none;html=1;verticalAlign=middle;whiteSpace=wrap;rounded=0;labelBackgroundColor=none;labelBorderColor=none;fontSize=40;fontColor=none;fontStyle=1" parent="1" vertex="1">
                    <mxGeometry x="1210" y="-920" width="60" height="30" as="geometry"/>
                </mxCell>
                <mxCell id="dMr9FAkAcw1lF0k9sU2F-28" value="&lt;font face=&quot;Courier New&quot;&gt;.32&lt;/font&gt;" style="text;strokeColor=none;align=center;fillColor=none;html=1;verticalAlign=middle;whiteSpace=wrap;rounded=0;labelBackgroundColor=none;labelBorderColor=none;fontSize=40;fontColor=none;fontStyle=1" parent="1" vertex="1">
                    <mxGeometry x="1080" y="-920" width="60" height="30" as="geometry"/>
                </mxCell>
                <mxCell id="dMr9FAkAcw1lF0k9sU2F-31" value="&lt;font face=&quot;Courier New&quot;&gt;.64&lt;/font&gt;" style="text;strokeColor=none;align=center;fillColor=none;html=1;verticalAlign=middle;whiteSpace=wrap;rounded=0;labelBackgroundColor=none;labelBorderColor=none;fontSize=40;fontColor=none;fontStyle=1" parent="1" vertex="1">
                    <mxGeometry x="950" y="-920" width="60" height="30" as="geometry"/>
                </mxCell>
                <mxCell id="dMr9FAkAcw1lF0k9sU2F-34" value="&lt;font face=&quot;Courier New&quot;&gt;.128&lt;/font&gt;" style="text;strokeColor=none;align=center;fillColor=none;html=1;verticalAlign=middle;whiteSpace=wrap;rounded=0;labelBackgroundColor=none;labelBorderColor=none;fontSize=40;fontColor=none;fontStyle=1" parent="1" vertex="1">
                    <mxGeometry x="820" y="-920" width="60" height="30" as="geometry"/>
                </mxCell>
                <mxCell id="dMr9FAkAcw1lF0k9sU2F-37" value="/25" style="text;strokeColor=none;align=center;fillColor=none;html=1;verticalAlign=middle;whiteSpace=wrap;rounded=0;labelBackgroundColor=none;labelBorderColor=none;fontSize=40;fontColor=none;fontStyle=1" parent="1" vertex="1">
                    <mxGeometry x="820" y="-1080" width="60" height="60" as="geometry"/>
                </mxCell>
                <mxCell id="dMr9FAkAcw1lF0k9sU2F-38" value="/26" style="text;strokeColor=none;align=center;fillColor=none;html=1;verticalAlign=middle;whiteSpace=wrap;rounded=0;labelBackgroundColor=none;labelBorderColor=none;fontSize=40;fontColor=none;fontStyle=1" parent="1" vertex="1">
                    <mxGeometry x="950" y="-1080" width="60" height="60" as="geometry"/>
                </mxCell>
                <mxCell id="dMr9FAkAcw1lF0k9sU2F-39" value="/27" style="text;strokeColor=none;align=center;fillColor=none;html=1;verticalAlign=middle;whiteSpace=wrap;rounded=0;labelBackgroundColor=none;labelBorderColor=none;fontSize=40;fontColor=none;fontStyle=1" parent="1" vertex="1">
                    <mxGeometry x="1080" y="-1080" width="60" height="60" as="geometry"/>
                </mxCell>
                <mxCell id="dMr9FAkAcw1lF0k9sU2F-40" value="/28" style="text;strokeColor=none;align=center;fillColor=none;html=1;verticalAlign=middle;whiteSpace=wrap;rounded=0;labelBackgroundColor=none;labelBorderColor=none;fontSize=40;fontColor=none;fontStyle=1" parent="1" vertex="1">
                    <mxGeometry x="1210" y="-1080" width="60" height="60" as="geometry"/>
                </mxCell>
                <mxCell id="dMr9FAkAcw1lF0k9sU2F-41" value="/29" style="text;strokeColor=none;align=center;fillColor=none;html=1;verticalAlign=middle;whiteSpace=wrap;rounded=0;labelBackgroundColor=none;labelBorderColor=none;fontSize=40;fontColor=none;fontStyle=1" parent="1" vertex="1">
                    <mxGeometry x="1340" y="-1080" width="60" height="60" as="geometry"/>
                </mxCell>
                <mxCell id="dMr9FAkAcw1lF0k9sU2F-42" value="/30" style="text;strokeColor=none;align=center;fillColor=none;html=1;verticalAlign=middle;whiteSpace=wrap;rounded=0;labelBackgroundColor=none;labelBorderColor=none;fontSize=40;fontColor=none;fontStyle=1" parent="1" vertex="1">
                    <mxGeometry x="1470" y="-1080" width="60" height="60" as="geometry"/>
                </mxCell>
                <mxCell id="dMr9FAkAcw1lF0k9sU2F-43" value="/31" style="text;strokeColor=none;align=center;fillColor=none;html=1;verticalAlign=middle;whiteSpace=wrap;rounded=0;labelBackgroundColor=none;labelBorderColor=none;fontSize=40;fontColor=none;fontStyle=1" parent="1" vertex="1">
                    <mxGeometry x="1600" y="-1080" width="60" height="60" as="geometry"/>
                </mxCell>
            </root>
        </mxGraphModel>
    </diagram>
</mxfile>